<?xml version="1.0" encoding="utf-8"?>
<!-- Generator: Adobe Illustrator 16.0.0, SVG Export Plug-In . SVG Version: 6.00 Build 0)  -->
<!DOCTYPE svg PUBLIC "-//W3C//DTD SVG 1.1//EN" "http://www.w3.org/Graphics/SVG/1.1/DTD/svg11.dtd">
<svg version="1.1" id="Layer_1" xmlns="http://www.w3.org/2000/svg" xmlns:xlink="http://www.w3.org/1999/xlink" x="0px" y="0px"
	 width="346.72px" height="346.72px" viewBox="0 0 346.72 346.72" enable-background="new 0 0 346.72 346.72" xml:space="preserve">
<path fill="#8E8E8E" d="M173.36,346.72C77.769,346.72,0,268.95,0,173.359S77.769,0,173.36,0c95.591,0,173.36,77.769,173.36,173.359
	S268.951,346.72,173.36,346.72z M173.36,14C85.489,14,14,85.488,14,173.359c0,87.872,71.489,159.36,159.36,159.36
	c87.872,0,159.36-71.488,159.36-159.36C332.72,85.488,261.231,14,173.36,14z"/>
<circle fill="#8E8E8E" cx="115.053" cy="151.805" r="22"/>
<path fill="#8E8E8E" d="M267.726,173.972c-2.099,0-4.175-0.94-5.554-2.733c-0.283-0.348-8.379-10.094-28.605-12.482
	c-19.569-2.308-27.287,5.041-27.355,5.117c-2.612,2.848-7.041,3.038-9.891,0.424c-2.848-2.614-3.038-7.042-0.424-9.891
	c1.203-1.311,12.528-12.715,39.311-9.554c26.46,3.124,37.602,17.251,38.063,17.851c2.356,3.064,1.783,7.459-1.281,9.816
	C270.716,173.499,269.215,173.972,267.726,173.972z"/>
<path fill="#8E8E8E" d="M169.655,275.25c-41.137,0-59.145-22.066-60.099-23.277c-2.394-3.036-1.873-7.438,1.163-9.831
	c3.035-2.392,7.437-1.873,9.831,1.163c0.989,1.213,25.728,30.501,87.801,11.637c41.782-12.698,66.992-57.571,67.242-58.023
	c1.87-3.385,6.134-4.609,9.513-2.739c3.384,1.87,4.61,6.13,2.739,9.513c-1.132,2.048-28.267,50.313-75.424,64.645
	C196.035,273.316,181.832,275.25,169.655,275.25z"/>
</svg>
