<?xml version="1.0" encoding="utf-8"?>
<!-- Generator: Adobe Illustrator 16.0.0, SVG Export Plug-In . SVG Version: 6.00 Build 0)  -->
<!DOCTYPE svg PUBLIC "-//W3C//DTD SVG 1.1//EN" "http://www.w3.org/Graphics/SVG/1.1/DTD/svg11.dtd">
<svg version="1.1" id="Capa_1" xmlns="http://www.w3.org/2000/svg" xmlns:xlink="http://www.w3.org/1999/xlink" x="0px" y="0px"
	 width="408.364px" height="404.127px" viewBox="0 0 408.364 404.127" enable-background="new 0 0 408.364 404.127"
	 xml:space="preserve">
<g display="none">
	<path display="inline" fill="#808080" d="M522.568,0H72.712C32.62,0,0,32.621,0,72.712v258.703
		c0,40.091,32.62,72.712,72.712,72.712h449.855c40.092,0,72.712-32.621,72.712-72.712V72.72C595.288,32.621,562.667,0,522.568,0z
		 M487.038,47.437L297.64,169.459L108.242,47.437H487.038z M522.568,356.699H72.712c-13.938,0-25.275-11.346-25.275-25.275V74.064
		l235.569,151.48c0.316,0.198,0.656,0.332,0.98,0.515c0.34,0.189,0.688,0.371,1.035,0.545c1.826,0.941,3.708,1.7,5.63,2.198
		c0.197,0.055,0.395,0.079,0.593,0.126c2.11,0.498,4.245,0.807,6.38,0.807c0.008,0,0.016,0,0.016,0c0.016,0,0.024,0,0.032,0
		c2.135,0,4.269-0.3,6.38-0.807c0.197-0.047,0.396-0.071,0.593-0.126c1.921-0.498,3.795-1.257,5.629-2.198
		c0.348-0.174,0.696-0.355,1.036-0.545c0.324-0.183,0.664-0.316,0.98-0.515L547.86,74.064v257.351
		C547.852,345.353,536.506,356.699,522.568,356.699z"/>
</g>
<path fill="#808080" d="M407.132,118.771c-0.998-21.519-4.427-36.189-9.491-49.056c-2.865-7.569-6.66-14.74-11.271-21.362
	c-3.604-5.178-7.708-10.02-12.257-14.453c-11.366-11.208-22.714-18.163-36.191-23.293c-2.915-1.123-5.928-2.157-9.079-3.107
	c-10.924-3.293-23.608-5.506-40.492-6.287C266.596,0.198,259.657,0,204.184,0c-55.472,0-62.392,0.266-84.166,1.213
	C103.119,1.994,90.444,4.207,79.525,7.5c-3.15,0.95-6.162,1.985-9.077,3.107c-13.639,5.07-25.981,13.023-36.17,23.293
	c-4.567,4.43-8.677,9.27-12.286,14.447c-4.614,6.621-8.408,13.794-11.284,21.368c-5.064,12.886-8.455,27.518-9.491,49.056
	C0.2,140.31,0,147.167,0,202.064c0,54.895,0.259,61.764,1.216,83.292c1.037,21.528,4.427,36.189,9.491,49.055
	c5.145,13.477,13.161,25.712,23.569,35.815c10.189,10.28,22.532,18.232,36.17,23.284c13.021,5.012,27.836,8.407,49.571,9.394
	c21.774,1.026,28.693,1.223,84.166,1.223c55.473,0,62.412-0.277,84.167-1.223c21.754-0.987,36.57-4.382,49.571-9.394
	c13.619-5.071,25.982-13.023,36.191-23.284c10.387-10.103,18.423-22.319,23.528-35.815c5.064-12.885,8.493-27.527,9.491-49.055
	c1.036-21.529,1.235-28.397,1.235-83.292C408.367,147.167,408.088,140.31,407.132,118.771z M85.203,48.296
	c3.98-1.532,8.088-2.788,12.6-3.796c6.789-1.517,14.498-2.468,24.129-2.913c23.489-1.036,31.745-1.175,82.252-1.175
	c51.843,0,59.72,0.118,82.272,1.175c9.623,0.435,17.345,1.386,24.161,2.913c4.482,1.004,8.576,2.253,12.547,3.776
	c0.537,0.195,1.061,0.419,1.591,0.629L204.184,191.152L83.629,48.918C84.145,48.708,84.669,48.5,85.203,48.296z M366.335,283.482
	c-0.72,15.747-2.89,26.402-6.779,36.367c-3.391,8.683-7.477,15.017-14.357,21.825c-6.78,6.708-13.221,10.754-22.055,14.188
	c-9.969,3.808-20.736,5.938-36.688,6.669c-23.509,1.045-31.745,1.185-82.272,1.185c-51.843,0-59.72-0.12-82.252-1.185
	c-15.951-0.71-26.679-2.861-36.769-6.709c-8.773-3.354-15.154-7.418-22.053-14.208c-6.779-6.709-10.848-13.044-14.317-21.824
	c-3.868-9.847-6.022-20.484-6.779-36.309c-1.037-23.266-1.177-31.415-1.177-81.417c0-51.306,0.12-59.1,1.177-81.408
	c0.757-15.825,2.891-26.432,6.779-36.338c1.462-3.927,3.352-7.667,5.606-11.176l149.784,164.597L353.954,73.153
	c2.251,3.508,4.141,7.244,5.602,11.165c3.89,9.867,6.021,20.532,6.779,36.338c1.057,23.255,1.196,31.415,1.196,81.408
	C367.531,253.37,367.411,261.164,366.335,283.482z"/>
</svg>
