<?xml version="1.0" encoding="utf-8"?>
<!-- Generator: Adobe Illustrator 16.0.0, SVG Export Plug-In . SVG Version: 6.00 Build 0)  -->
<!DOCTYPE svg PUBLIC "-//W3C//DTD SVG 1.1//EN" "http://www.w3.org/Graphics/SVG/1.1/DTD/svg11.dtd">
<svg version="1.1" id="Capa_1" xmlns="http://www.w3.org/2000/svg" xmlns:xlink="http://www.w3.org/1999/xlink" x="0px" y="0px"
	 width="356.335px" height="595.296px" viewBox="0 0 356.335 595.296" enable-background="new 0 0 356.335 595.296"
	 xml:space="preserve">
<g>
	<path fill="#808080" d="M298.087,106.408h58.248V0.065H250.482c-8.83-0.367-116.472-2.425-144.371,103.967
		c-0.404,1.115-9.32,26.417-9.32,85.523L0,189.849v111.536l96.912-0.281v294.192h148.033V301.361h97.979v-111.83h-97.979v-35.187
		C244.946,132.471,254.168,106.408,298.087,106.408z M318.43,214.013v62.841h-97.979v293.935h-99.044V276.536l-96.913,0.281v-62.546
		l97.17-0.282l-0.257-12.456c-1.273-62.608,7.654-88.94,8.059-90.202c24.078-91.634,116.019-87.029,119.962-86.784l82.412,0.024
		v57.354h-33.753c-57.232,0-77.624,37.403-77.624,72.406v59.681H318.43L318.43,214.013z"/>
</g>
</svg>
