<?xml version="1.0" encoding="utf-8"?>
<!-- Generator: Adobe Illustrator 16.0.0, SVG Export Plug-In . SVG Version: 6.00 Build 0)  -->
<!DOCTYPE svg PUBLIC "-//W3C//DTD SVG 1.1//EN" "http://www.w3.org/Graphics/SVG/1.1/DTD/svg11.dtd">
<svg version="1.1" id="Layer_1" xmlns="http://www.w3.org/2000/svg" xmlns:xlink="http://www.w3.org/1999/xlink" x="0px" y="0px"
	 width="20px" height="20px" viewBox="0 0 20 20" enable-background="new 0 0 20 20" xml:space="preserve">
<path fill="#808080" d="M15,11.13v3.697h-2.143v-3.45c0-0.866-0.311-1.457-1.086-1.457c-0.592,0-0.945,0.398-1.1,0.784
	c-0.056,0.138-0.071,0.33-0.071,0.522v3.601H8.456c0,0,0.029-5.842,0-6.447H10.6v0.913l-0.014,0.021H10.6v-0.02
	c0.285-0.44,0.793-1.066,1.932-1.066C13.941,8.228,15,9.15,15,11.13z M6.213,5.271C5.48,5.271,5,5.753,5,6.385
	C5,7.005,5.466,7.5,6.185,7.5h0.014c0.748,0,1.213-0.496,1.213-1.115C7.398,5.753,6.947,5.271,6.213,5.271z M5.127,14.827h2.144
	V8.38H5.127V14.827z"/>
<path fill="#808080" d="M4,2C2.896,2,2,2.896,2,4v12c0,1.104,0.896,2,2,2h12c1.104,0,2-0.896,2-2V4c0-1.104-0.896-2-2-2H4z M4,0h12
	c2.209,0,4,1.791,4,4v12c0,2.209-1.791,4-4,4H4c-2.209,0-4-1.791-4-4V4C0,1.791,1.791,0,4,0z"/>
</svg>
