<?xml version="1.0" encoding="utf-8"?>
<!-- Generator: Adobe Illustrator 16.0.0, SVG Export Plug-In . SVG Version: 6.00 Build 0)  -->
<!DOCTYPE svg PUBLIC "-//W3C//DTD SVG 1.1//EN" "http://www.w3.org/Graphics/SVG/1.1/DTD/svg11.dtd">
<svg version="1.1" id="Layer_1" xmlns="http://www.w3.org/2000/svg" xmlns:xlink="http://www.w3.org/1999/xlink" x="0px" y="0px"
	 width="20px" height="20px" viewBox="2 2 20 20" enable-background="new 2 2 20 20" xml:space="preserve">
<g>
	<path fill="#808080" d="M12,9c-1.657,0-3,1.343-3,3c0,1.656,1.343,3,3,3c1.656,0,3-1.344,3-3C15,10.343,13.656,9,12,9z M12,7
		c2.762,0,5,2.239,5,5c0,2.762-2.238,5-5,5c-2.761,0-5-2.238-5-5C7,9.239,9.239,7,12,7z M18.5,6.75C18.5,7.44,17.94,8,17.25,8
		S16,7.44,16,6.75s0.56-1.25,1.25-1.25S18.5,6.06,18.5,6.75z M12,4C9.526,4,9.122,4.007,7.971,4.058
		C7.187,4.095,6.661,4.2,6.173,4.39c-0.434,0.168-0.747,0.369-1.08,0.703C4.78,5.396,4.54,5.765,4.389,6.173
		c-0.19,0.49-0.295,1.015-0.331,1.798C4.006,9.075,4,9.461,4,12c0,2.475,0.007,2.878,0.058,4.029
		c0.037,0.783,0.142,1.31,0.331,1.797c0.17,0.435,0.37,0.748,0.702,1.08c0.337,0.336,0.65,0.537,1.08,0.703
		c0.494,0.19,1.02,0.297,1.8,0.332C9.075,19.994,9.461,20,12,20c2.475,0,2.878-0.007,4.029-0.059
		c0.781-0.036,1.309-0.142,1.797-0.33c0.433-0.17,0.748-0.37,1.08-0.702c0.337-0.337,0.537-0.65,0.703-1.08
		c0.19-0.493,0.297-1.021,0.332-1.8C19.994,14.925,20,14.539,20,12c0-2.474-0.007-2.878-0.059-4.029
		c-0.037-0.782-0.142-1.31-0.332-1.798c-0.15-0.408-0.391-0.777-0.702-1.08c-0.303-0.313-0.672-0.554-1.08-0.704
		c-0.49-0.19-1.017-0.295-1.798-0.331C14.925,4.006,14.539,4,12,4z M12,2c2.717,0,3.057,0.01,4.122,0.06
		c1.065,0.05,1.79,0.217,2.428,0.465c0.66,0.254,1.216,0.598,1.772,1.153c0.508,0.5,0.902,1.105,1.152,1.772
		c0.248,0.637,0.416,1.363,0.465,2.428C21.986,8.944,22,9.283,22,12s-0.01,3.057-0.061,4.122c-0.049,1.065-0.217,1.79-0.465,2.428
		c-0.25,0.668-0.644,1.272-1.152,1.772c-0.5,0.508-1.105,0.901-1.772,1.152c-0.637,0.248-1.362,0.416-2.428,0.465
		C15.057,21.986,14.717,22,12,22s-3.056-0.01-4.122-0.061c-1.065-0.049-1.79-0.217-2.428-0.465c-0.668-0.25-1.272-0.644-1.772-1.152
		c-0.509-0.5-0.902-1.105-1.153-1.772c-0.248-0.637-0.415-1.362-0.465-2.428C2.013,15.057,2,14.717,2,12s0.01-3.056,0.06-4.122
		c0.05-1.066,0.217-1.79,0.465-2.428c0.25-0.668,0.644-1.273,1.153-1.772c0.5-0.508,1.104-0.902,1.772-1.153
		C6.088,2.277,6.812,2.11,7.878,2.06C8.944,2.013,9.283,2,12,2z"/>
</g>
</svg>
