<?xml version="1.0" encoding="utf-8"?>
<!-- Generator: Adobe Illustrator 16.0.0, SVG Export Plug-In . SVG Version: 6.00 Build 0)  -->
<!DOCTYPE svg PUBLIC "-//W3C//DTD SVG 1.1//EN" "http://www.w3.org/Graphics/SVG/1.1/DTD/svg11.dtd">
<svg version="1.1" id="Layer_1" xmlns="http://www.w3.org/2000/svg" xmlns:xlink="http://www.w3.org/1999/xlink" x="0px" y="0px"
	 width="18.14px" height="23.999px" viewBox="0 0 18.14 23.999" enable-background="new 0 0 18.14 23.999" xml:space="preserve">
<title>ic_fluent_phone_28_regular</title>
<desc>Created with Sketch.</desc>
<g id="_xD83D__xDD0D_-Product-Icons">
	<g id="ic_fluent_phone_28_regular">
		<path id="_xD83C__xDFA8_-Color" fill="#808080" d="M2.957,0.639l1.66-0.5C6.18-0.333,7.85,0.429,8.519,1.917l1.033,2.299
			c0.57,1.269,0.271,2.76-0.747,3.709L7,9.609C6.977,9.629,6.959,9.654,6.945,9.682c-0.188,0.386,0.098,1.417,0.997,2.975
			c1.014,1.756,1.797,2.451,2.159,2.344l2.37-0.725c1.33-0.407,2.771,0.078,3.585,1.206l1.468,2.034
			c0.953,1.32,0.781,3.142-0.4,4.261l-1.263,1.195c-0.892,0.845-2.14,1.198-3.342,0.948c-3.517-0.73-6.668-3.563-9.48-8.433
			C0.225,10.612-0.651,6.464,0.479,3.05C0.863,1.891,1.788,0.991,2.957,0.639z M3.39,2.075C2.688,2.287,2.133,2.826,1.903,3.522
			c-0.974,2.941-0.185,6.676,2.435,11.215c2.618,4.534,5.456,7.085,8.487,7.715c0.721,0.149,1.47-0.063,2.005-0.569l1.262-1.195
			c0.637-0.604,0.729-1.584,0.216-2.295l-1.467-2.033c-0.439-0.607-1.215-0.869-1.932-0.65l-2.374,0.727
			c-1.314,0.392-2.549-0.703-3.892-3.029c-1.136-1.968-1.531-3.39-1.045-4.384C5.692,8.831,5.82,8.657,5.977,8.512l1.805-1.683
			c0.548-0.511,0.71-1.314,0.403-1.998L7.151,2.533c-0.36-0.802-1.26-1.211-2.101-0.958L3.39,2.075z"/>
	</g>
</g>
</svg>
