<?xml version="1.0" encoding="utf-8"?>
<!-- Generator: Adobe Illustrator 16.0.0, SVG Export Plug-In . SVG Version: 6.00 Build 0)  -->
<!DOCTYPE svg PUBLIC "-//W3C//DTD SVG 1.1//EN" "http://www.w3.org/Graphics/SVG/1.1/DTD/svg11.dtd">
<svg version="1.1" id="Layer_1" xmlns="http://www.w3.org/2000/svg" xmlns:xlink="http://www.w3.org/1999/xlink" x="0px" y="0px"
	 width="17px" height="12px" viewBox="0 0 17 12" enable-background="new 0 0 17 12" xml:space="preserve">
<linearGradient id="SVGID_1_" gradientUnits="userSpaceOnUse" x1="8.3604" y1="30.0547" x2="25.3594" y2="30.0547" gradientTransform="matrix(1 0 0 -1 -8.3599 36.0547)">
	<stop  offset="0" style="stop-color:#008568;stop-opacity:0.2"/>
	<stop  offset="1" style="stop-color:#008568"/>
</linearGradient>
<path fill="url(#SVGID_1_)" d="M15.434,1.176l-2.447,1.681C12.91,1.268,11.607,0,10,0H3C1.344,0,0,1.343,0,3v6c0,1.656,1.343,3,3,3
	h7c1.607,0,2.91-1.27,2.986-2.855l2.447,1.681C16.098,11.281,17,10.805,17,10.001v-8C17,1.195,16.098,0.72,15.434,1.176z
	 M11.844,8.563c0,0.656-0.052,2.188-2.188,2.188H3.343c-1.76,0-2.188-1.531-2.188-2.188V3.438c0-0.655,0.386-2.188,2.188-2.188
	h6.313c2.011,0,2.188,1.532,2.188,2.188V8.563z M16.031,9.549l-2.797-1.73l-0.008-3.657l2.805-1.711V9.549z"/>
</svg>
